<?xml version="1.0" encoding="UTF-8"?>
<svg width="1024" height="1024" viewBox="0 0 1024 1024" fill="none" xmlns="http://www.w3.org/2000/svg">
  <!-- Background Circle -->
  <circle cx="512" cy="512" r="460" fill="#1E293B" />
  
  <!-- Timer Circle Track -->
  <circle 
    cx="512" 
    cy="512" 
    r="380" 
    stroke="#334155" 
    stroke-width="40" 
    fill="none"
  />
  
  <!-- Timer Progress -->
  <path 
    d="M512 132A380 380 0 0 1 892 512"
    stroke="#7C3AED" 
    stroke-width="40" 
    stroke-linecap="round"
    fill="none"
  />
  
  <!-- Center Dot -->
  <circle 
    cx="512" 
    cy="512" 
    r="60" 
    fill="#7C3AED"
  />
  
  <!-- Minute Markers -->
  <g stroke="#475569" stroke-width="4">
    <line x1="512" y1="172" x2="512" y2="212" transform="rotate(0 512 512)" />
    <line x1="512" y1="172" x2="512" y2="212" transform="rotate(30 512 512)" />
    <line x1="512" y1="172" x2="512" y2="212" transform="rotate(60 512 512)" />
    <line x1="512" y1="172" x2="512" y2="212" transform="rotate(90 512 512)" />
    <line x1="512" y1="172" x2="512" y2="212" transform="rotate(120 512 512)" />
    <line x1="512" y1="172" x2="512" y2="212" transform="rotate(150 512 512)" />
    <line x1="512" y1="172" x2="512" y2="212" transform="rotate(180 512 512)" />
    <line x1="512" y1="172" x2="512" y2="212" transform="rotate(210 512 512)" />
    <line x1="512" y1="172" x2="512" y2="212" transform="rotate(240 512 512)" />
    <line x1="512" y1="172" x2="512" y2="212" transform="rotate(270 512 512)" />
    <line x1="512" y1="172" x2="512" y2="212" transform="rotate(300 512 512)" />
    <line x1="512" y1="172" x2="512" y2="212" transform="rotate(330 512 512)" />
  </g>
</svg>
